<?xml version="1.0" encoding="utf-8"?>
<!-- Generator: Adobe Illustrator 27.1.1, SVG Export Plug-In . SVG Version: 6.00 Build 0)  -->
<svg version="1.1" id="Capa_1" xmlns="http://www.w3.org/2000/svg" xmlns:xlink="http://www.w3.org/1999/xlink" x="0px" y="0px"
	 viewBox="0 0 1129.01 321.02" style="enable-background:new 0 0 1129.01 321.02;" xml:space="preserve">
<style type="text/css">
	.st0{fill:#000000;stroke:#000000;stroke-width:0.5;stroke-linecap:round;stroke-linejoin:round;stroke-miterlimit:10;}
	.st1{fill:none;stroke:#000000;stroke-width:0.5;stroke-miterlimit:10;}
	.st2{fill:#000000;}
</style>
<g id="Capa_1_00000172417364814036453370000004621789174588717720_">
</g>
<g>
	<path class="st0" d="M241.95,176.27L209,164.48c-5.22,9.16-14.34,15.8-25.09,17.66l5.63,45.37c4.92,0.16,9.46,1.85,13.15,4.61
		l42.83-38.33c-2.53-3.72-4.01-8.21-4.01-13.04C241.51,179.22,241.66,177.72,241.95,176.27z"/>
	<path class="st0" d="M92.78,185.48c-8.97,0-16.26,7.3-16.26,16.26c0,8.97,7.3,16.26,16.26,16.26s16.26-7.3,16.26-16.26
		S101.74,185.48,92.78,185.48z"/>
	<path class="st0" d="M202.51,66.75c0,8.97,7.3,16.26,16.26,16.26s16.26-7.3,16.26-16.26c0-3.01-0.84-5.82-2.26-8.24h-28
		C203.35,60.93,202.51,63.74,202.51,66.75z"/>
	<path class="st0" d="M166.74,243.3l-55.43-27.52c-4.25,5.6-10.98,9.23-18.54,9.23c-12.83,0-23.26-10.44-23.26-23.26
		c0-11.69,8.67-21.39,19.92-23.02l2.44-49.48c-9.98-2.62-17.36-11.71-17.36-22.5c0-12.83,10.44-23.26,23.26-23.26
		c8.96,0,16.76,5.1,20.64,12.55l77.41-25.49c-0.2-1.23-0.31-2.5-0.31-3.79c0-2.9,0.54-5.67,1.51-8.24H88.98
		c-14.9,0-26.97,12.08-26.97,26.97v144.55c0,14.9,12.08,26.97,26.97,26.97h77.39c-0.56-1.99-0.86-4.09-0.86-6.26
		C165.51,248.14,165.95,245.64,166.74,243.3z"/>
	<path class="st0" d="M248.51,180.75c0,8.97,7.3,16.26,16.26,16.26c1.73,0,3.39-0.28,4.96-0.78v-30.97
		c-1.56-0.5-3.23-0.78-4.96-0.78C255.81,164.48,248.51,171.78,248.51,180.75z"/>
	<path class="st0" d="M230.1,87.06l28.52,71.26c1.96-0.54,4.03-0.83,6.16-0.83c1.7,0,3.36,0.19,4.96,0.54V85.48
		c0-14.9-12.08-26.97-26.97-26.97h-2.23c0.97,2.56,1.51,5.34,1.51,8.24C242.04,75.47,237.22,83.08,230.1,87.06z"/>
	<path class="st0" d="M205.04,250.75c0-8.97-7.3-16.26-16.26-16.26s-16.26,7.3-16.26,16.26c0,2.22,0.45,4.33,1.26,6.26h30.01
		C204.59,255.08,205.04,252.97,205.04,250.75z"/>
	<path class="st0" d="M177.78,117.82c-15.95,0-28.92,12.97-28.92,28.92s12.97,28.92,28.92,28.92s28.92-12.97,28.92-28.92
		C206.7,130.8,193.72,117.82,177.78,117.82z"/>
	<path class="st0" d="M147.27,127.8c6.35-10.18,17.64-16.98,30.5-16.98c4.53,0,8.86,0.85,12.85,2.39l14.89-27.37
		c-3.17-2.21-5.76-5.18-7.52-8.65l-77.32,25.47c0.24,1.33,0.37,2.69,0.37,4.09c0,2.05-0.27,4.04-0.77,5.94L147.27,127.8z"/>
	<circle class="st0" cx="97.78" cy="106.75" r="16.26"/>
	<path class="st0" d="M148.56,167.61l-35.27,23.17c1.76,3.27,2.75,7,2.75,10.97c0,2.77-0.49,5.42-1.38,7.88l55.3,27.45
		c3.06-4.2,7.49-7.34,12.63-8.76l-5.67-45.68C165.24,182.37,154.92,176.5,148.56,167.61z"/>
	<path class="st0" d="M213.7,146.75c0,3.95-0.65,7.76-1.84,11.32l32.45,11.62c1.88-3.46,4.61-6.38,7.91-8.51l-28.68-71.66
		c-1.54,0.32-3.13,0.49-4.77,0.49c-2.43,0-4.77-0.38-6.98-1.07l-14.91,27.41C206.98,122.72,213.7,133.96,213.7,146.75z"/>
	<path class="st0" d="M141.85,146.75c0-4.46,0.82-8.72,2.31-12.66l-26.71-14.95c-3.95,6.25-10.78,10.5-18.61,10.85l-2.41,48.79
		c4.88,0.78,9.26,3.08,12.64,6.4l35.97-23.64C143,157.02,141.85,152.02,141.85,146.75z"/>
	<path class="st0" d="M250.28,198.92l-42.67,38.19c2.78,3.83,4.43,8.55,4.43,13.64c0,2.17-0.31,4.27-0.86,6.26h31.58
		c14.9,0,26.97-12.08,26.97-26.97v-26.56c-1.6,0.35-3.26,0.54-4.96,0.54C259.3,204.01,254.26,202.1,250.28,198.92z"/>
</g>
<g>
	<path class="st0" d="M304.06,173.45v-0.32c2.62-0.93,4.34-2.16,5.17-3.68c0.83-1.52,1.24-3.96,1.24-7.33v-34.11
		c0-3.28-0.41-5.67-1.24-7.17c-0.83-1.49-2.55-2.71-5.17-3.64v-0.32h40.52v13.61h-0.4c-2.7-4.32-4.84-7.13-6.45-8.41
		s-4.02-1.92-7.25-1.92h-7.73v22.62h8.05c2.24,0,4.04-0.41,5.41-1.22s2.79-2.37,4.28-4.67h0.4v14.89h-0.4
		c-1.47-2.3-2.9-3.83-4.28-4.59c-1.39-0.76-3.19-1.14-5.41-1.14h-8.05v24.1h6.97c2.35,0,4.19-0.11,5.53-0.32
		c1.33-0.21,2.72-0.84,4.16-1.88c1.47-1.04,2.71-2.15,3.72-3.32c1.01-1.17,2.7-3.22,5.04-6.13h0.4l-1.64,14.93h-42.87V173.45z"/>
	<path class="st0" d="M375.6,130.65c2.91,0,5.58,0.76,8.01,2.28c2.43,1.5,3.65,3.31,3.65,5.45s-0.58,3.82-1.74,5.04
		c-1.16,1.23-2.62,1.87-4.36,1.92c-1.75,0-3.21-0.54-4.4-1.63c-1.19-1.09-1.78-2.35-1.78-3.78s0.36-2.76,1.07-3.98
		c0.71-1.25,1.6-2.15,2.66-2.71c-0.77-0.11-1.3-0.16-1.59-0.16c-3.94,0-6.98,1.41-9.11,4.23c-2.13,2.82-3.2,7.04-3.2,12.66
		c0,5.59,1.28,9.83,3.83,12.7c2.56,2.85,5.78,4.27,9.67,4.27c3.87,0,7.34-1.09,10.41-3.28l0.52,0.32c-2.48,3.68-5.03,6.33-7.65,7.96
		c-2.62,1.6-5.64,2.43-9.08,2.48c-5.41,0.03-10.01-1.91-13.8-5.81c-3.79-3.9-5.69-8.89-5.72-14.97c0-3.76,0.69-7.18,2.08-10.25
		c1.36-3.07,3.14-5.5,5.32-7.29C364.79,132.48,369.86,130.65,375.6,130.65z"/>
	<path class="st0" d="M390.62,152.41c0-6.25,2.22-11.44,6.67-15.55c4.47-4.11,9.7-6.18,15.69-6.21c5.98,0.03,11.2,2.1,15.65,6.21
		c4.45,4.11,6.67,9.3,6.67,15.55s-2.2,11.48-6.59,15.69c-4.39,4.23-9.65,6.35-15.77,6.35s-11.38-2.12-15.77-6.35
		C392.8,163.9,390.62,158.67,390.62,152.41z M412.94,172.01c3.45,0,5.99-1.88,7.62-5.65c1.63-3.77,2.45-8.43,2.45-13.99
		s-0.87-10.15-2.61-13.79c-1.79-3.66-4.29-5.49-7.5-5.49s-5.68,1.82-7.42,5.45s-2.59,8.31-2.57,14.03c0,7.48,1.38,12.97,4.13,16.47
		C408.62,171.02,410.59,172.01,412.94,172.01z"/>
	<path class="st0" d="M455.33,171.97c2.08,0,3.76-0.59,5.04-1.76c1.28-1.2,1.92-2.74,1.92-4.6s-0.72-3.4-2.16-4.6
		s-3.2-2.26-5.29-3.16c-2.08-0.91-4.15-1.9-6.21-2.96c-2.06-1.07-3.8-2.58-5.24-4.52c-1.44-1.95-2.16-4.23-2.16-6.85
		c0-3.71,1.49-6.78,4.48-9.21c3.02-2.43,6.59-3.64,10.73-3.64s8.17,0.73,12.09,2.2v10.65h-0.32c-4.59-6.94-8.63-10.41-12.13-10.41
		c-1.76,0-3.24,0.52-4.44,1.56s-1.8,2.42-1.8,4.12c0,1.71,0.75,3.18,2.24,4.4c1.5,1.2,3.31,2.26,5.45,3.16
		c2.14,0.91,4.26,1.91,6.37,3s3.91,2.64,5.41,4.64s2.26,4.34,2.28,7.01c0,4.14-1.62,7.41-4.84,9.81s-7.3,3.6-12.21,3.6
		s-9.29-0.87-13.13-2.6l-0.4-12.37h0.4C446.14,167.8,450.79,171.97,455.33,171.97z"/>
	<path class="st0" d="M496.73,173.45h-21.94v-0.32c2.12-0.93,3.52-2.15,4.21-3.64s1.03-3.9,1.03-7.21v-16.46
		c0-3.63-0.37-6.14-1.11-7.53s-2.41-2.6-5.01-3.64v-0.32c4.96-0.32,10.73-1.55,17.3-3.68h0.32v31.63c0,3.28,0.34,5.67,1.03,7.17
		s2.08,2.72,4.17,3.68V173.45z M491.76,121.04c0,1.68-0.62,3.14-1.87,4.36c-1.24,1.23-2.72,1.83-4.42,1.8c-1.7,0-3.18-0.6-4.42-1.8
		c-1.22-1.17-1.83-2.62-1.83-4.32c0-1.71,0.62-3.16,1.87-4.36c1.24-1.2,2.72-1.8,4.44-1.8c1.71,0,3.17,0.6,4.38,1.8
		C491.14,117.92,491.76,119.36,491.76,121.04z"/>
	<path class="st0" d="M515.58,171.97c2.08,0,3.76-0.59,5.04-1.76c1.28-1.2,1.92-2.74,1.92-4.6s-0.72-3.4-2.16-4.6
		s-3.2-2.26-5.29-3.16c-2.08-0.91-4.15-1.9-6.21-2.96c-2.06-1.07-3.8-2.58-5.25-4.52c-1.44-1.95-2.16-4.23-2.16-6.85
		c0-3.71,1.5-6.78,4.48-9.21c3.02-2.43,6.59-3.64,10.73-3.64s8.17,0.73,12.09,2.2v10.65h-0.32c-4.59-6.94-8.63-10.41-12.13-10.41
		c-1.76,0-3.24,0.52-4.44,1.56s-1.8,2.42-1.8,4.12c0,1.71,0.75,3.18,2.24,4.4c1.5,1.2,3.31,2.26,5.45,3.16
		c2.14,0.91,4.26,1.91,6.37,3s3.91,2.64,5.41,4.64s2.26,4.34,2.28,7.01c0,4.14-1.62,7.41-4.84,9.81s-7.3,3.6-12.21,3.6
		s-9.29-0.87-13.13-2.6l-0.4-12.37h0.4C506.4,167.8,511.05,171.97,515.58,171.97z"/>
	<path class="st0" d="M550.5,174.1c-7.93,0-11.89-4.2-11.89-12.61v-25.42h-6.97v-0.48c6.89-2.83,12.84-7.67,17.86-14.53h0.6v10.61
		h10.65v4.96H550.1v24.3c0,2.3,0.63,4.12,1.88,5.49s2.9,2.04,4.92,2.04s3.78-0.49,5.25-1.48l0.32,0.4c-1.15,1.6-2.83,3.12-5.04,4.56
		S552.9,174.1,550.5,174.1z"/>
	<path class="st0" d="M580.55,174.46c-5.8,0.03-10.4-1.91-13.79-5.81s-5.1-8.98-5.13-15.25c0-6.27,2-11.62,5.99-16.06
		c3.99-4.43,8.59-6.66,13.81-6.69c5.21,0,9.31,1.39,12.29,4.16c2.98,2.78,4.47,6.94,4.47,12.49v3.36h-24.74
		c0,5.26,1.31,9.14,3.93,11.65s5.96,3.79,10.02,3.84c4.06,0,7.7-1.2,10.93-3.6l0.4,0.32C593.92,170.6,587.86,174.46,580.55,174.46z
		 M581.23,133.1c-2.41,0-4.31,1.52-5.7,4.56s-2.09,6.75-2.09,11.13l14.57-1.32c0-4.78-0.54-8.37-1.61-10.77
		C585.34,134.3,583.61,133.1,581.23,133.1z"/>
	<path class="st0" d="M675.58,173.45H653.6v-0.32c2.13-0.93,3.55-2.15,4.24-3.64c0.69-1.5,1.03-3.9,1-7.21v-17.94
		c0-2.51-0.65-4.44-1.96-5.81c-1.31-1.39-3.11-2.08-5.41-2.08s-4.8,0.69-7.53,2.08c0.61,1.92,0.91,4.04,0.88,6.37v17.38
		c0,3.28,0.35,5.67,1.04,7.17s2.09,2.72,4.2,3.68v0.32h-21.98v-0.32c2.13-0.93,3.55-2.15,4.24-3.64c0.69-1.5,1.03-3.9,1-7.21v-17.94
		c0-2.56-0.6-4.51-1.8-5.85c-1.17-1.36-2.88-2.04-5.11-2.04c-2.24,0-4.56,0.63-6.99,1.88v23.94c0,3.28,0.34,5.67,1.03,7.17
		s2.08,2.72,4.17,3.68v0.32h-21.94v-0.32c2.12-0.93,3.52-2.15,4.21-3.64c0.69-1.5,1.03-3.9,1.03-7.21v-16.46
		c0-3.63-0.37-6.14-1.12-7.53s-2.43-2.6-5.04-3.64v-0.32c4.81-0.32,10.53-1.55,17.17-3.68h0.32v6.65c1.62-1.63,3.72-3.14,6.28-4.52
		c2.56-1.39,5.02-2.07,7.39-2.04c5.46,0,9.07,2.35,10.83,7.05c1.55-1.63,3.76-3.22,6.65-4.76c2.88-1.55,5.85-2.34,8.89-2.36
		c3.04,0,5.65,1.16,7.81,3.48c2.13,2.32,3.2,5.91,3.2,10.77v17.38c0,3.28,0.35,5.67,1.04,7.17s2.09,2.72,4.2,3.68v0.31H675.58z"/>
	<path class="st0" d="M709.97,174.26c-1.87,0-3.43-0.47-4.68-1.41s-1.99-2.29-2.2-4.04c-4.3,3.74-8.48,5.62-12.55,5.65
		c-3.05,0-5.59-0.92-7.61-2.76s-3.03-4.2-3.03-7.09c-0.03-3.6,1.92-6.79,5.86-9.57c3.93-2.78,9.68-4.56,17.25-5.37v-4.79
		c0-3.35-0.96-6.08-2.87-8.17s-4.43-3.15-7.55-3.18c-2.05,0-4.04,0.6-5.98,1.81c1.68,0.32,3.05,1.01,4.09,2.06
		c1.05,1.05,1.56,2.3,1.53,3.75c0,1.45-0.56,2.7-1.69,3.75c-1.15,1.05-2.51,1.57-4.06,1.57s-2.9-0.52-4.04-1.56
		c-1.14-1.04-1.71-2.3-1.71-3.76c0-2.91,1.82-5.38,5.46-7.41s7.81-3.06,12.51-3.08c10.5,0,15.76,4.89,15.78,14.67v17.15
		c0,3,0.52,4.97,1.56,5.94c1.04,0.96,2.79,1.58,5.25,1.84v0.31C717.14,173.03,713.36,174.26,709.97,174.26z M700.81,152.39
		c-2.66,0-4.89,0.67-6.7,2.02c-1.81,1.34-2.71,3.62-2.71,6.82c0,2.21,0.78,3.99,2.35,5.37c1.57,1.37,3.18,2.06,4.83,2.06
		s3.12-0.36,4.43-1.09v-14.92C702.24,152.47,701.5,152.39,700.81,152.39z"/>
</g>
<g>
	<path class="st0" d="M491.73,187.32h1.84v11.55h16.54v-11.55h1.84v25.2h-1.84v-12.15h-16.54v12.15h-1.84V187.32z"/>
	<path class="st0" d="M544.46,203.07c0,5.81-4.42,9.9-10.39,9.9c-6,0-10.42-4.09-10.42-9.9v-15.75h1.84V203
		c0,4.95,3.64,8.44,8.59,8.44c4.91,0,8.55-3.49,8.55-8.44v-15.68h1.84v15.75H544.46z"/>
	<path class="st0" d="M556.16,187.32H558l9.94,13.43l9.9-13.43h1.84v25.2h-1.73v-22.61l-9.45,12.86h-1.16l-9.45-12.86v22.61h-1.72
		v-25.2H556.16z"/>
	<path class="st0" d="M591.67,187.32h9.67c4.13,0,7.09,2.66,7.09,6.41c0,2.62-1.57,4.84-4.09,5.77c3.11,0.79,4.99,3.23,4.99,6.3
		c0,4.05-3.11,6.71-7.39,6.71h-10.27L591.67,187.32L591.67,187.32z M593.47,198.94h7.69c3.19,0,5.48-2.1,5.48-5.06
		c0-3-2.29-5.1-5.48-5.1h-7.69V198.94z M593.47,211.06h8.25c3.41,0,5.77-2.21,5.77-5.4c0-3.15-2.36-5.36-5.77-5.36h-8.25V211.06z"/>
	<path class="st0" d="M629.77,186.87c7.08,0,12.07,5.4,12.07,13.05c0,7.65-4.99,13.05-12.07,13.05c-7.13,0-12.11-5.4-12.11-13.05
		C617.66,192.27,622.64,186.87,629.77,186.87z M629.77,211.43c5.96,0,10.2-4.8,10.2-11.51c0-6.71-4.24-11.51-10.2-11.51
		c-6,0-10.24,4.8-10.24,11.51C619.53,206.63,623.77,211.43,629.77,211.43z"/>
	<path class="st0" d="M651.86,187.32h1.84v23.66h12.86v1.54h-14.7V187.32z"/>
	<path class="st0" d="M675.52,187.32h7.72c7.54,0,12.67,5.1,12.67,12.6c0,7.42-5.14,12.6-12.67,12.6h-7.72V187.32z M683.06,188.86
		h-5.7v22.12h5.7c6.49,0,10.99-4.54,10.99-11.06C694.04,193.39,689.54,188.86,683.06,188.86z"/>
	<path class="st0" d="M710.84,188.86h-9.15v-1.54h20.14v1.54h-9.15v23.66h-1.84L710.84,188.86L710.84,188.86z"/>
</g>
<line class="st1" x1="787.01" y1="57.48" x2="787.01" y2="257.01"/>
<g>
	<path class="st2" d="M853.5,65.67c-2.23,0-3.83-0.3-4.81-0.91c-0.97-0.6-1.46-1.58-1.46-2.93c0-1.36,0.48-2.34,1.45-2.94
		c0.97-0.6,2.57-0.9,4.82-0.9s3.86,0.3,4.82,0.9c0.97,0.59,1.45,1.57,1.45,2.94c0,1.34-0.49,2.32-1.48,2.93
		C857.31,65.37,855.72,65.67,853.5,65.67 M853.5,64.28c1.92,0,3.25-0.18,3.99-0.55c0.73-0.37,1.1-1,1.1-1.9
		c0-0.91-0.36-1.55-1.08-1.91c-0.72-0.36-2.06-0.54-4.01-0.54s-3.29,0.18-4,0.54s-1.07,1-1.07,1.91c0,0.9,0.37,1.53,1.1,1.9
		C850.26,64.1,851.59,64.28,853.5,64.28 M859.49,87.71h-10.74v3.05h-1.23v-7.29h1.23v2.87h10.74V87.71z M847.52,115.84v-1.33h8.05
		c1.12,0,1.9-0.16,2.34-0.48s0.66-0.86,0.66-1.63c0-0.78-0.24-1.35-0.72-1.72s-1.24-0.55-2.27-0.55h-8.05v-1.31h7.81
		c1.01,0,1.72,0.06,2.14,0.17c0.42,0.12,0.79,0.31,1.11,0.58c0.39,0.33,0.68,0.73,0.88,1.21c0.2,0.48,0.3,1.02,0.3,1.64
		s-0.11,1.19-0.32,1.69s-0.52,0.89-0.92,1.18c-0.27,0.2-0.61,0.34-1.04,0.43c-0.42,0.09-1.14,0.13-2.15,0.13L847.52,115.84
		L847.52,115.84z M859.49,138.14h-10.74v3.05h-1.23v-7.29h1.23v2.86h10.74V138.14z M859.49,160.62h-11.97v-1.37h11.97V160.62z
		 M859.49,182.91h-10.74v3.05h-1.23v-7.29h1.23v2.87h10.74V182.91z M855.69,210.67v-1.27h0.43c0.81,0,1.43-0.19,1.84-0.56
		c0.42-0.38,0.62-0.93,0.62-1.67c0-0.67-0.2-1.19-0.6-1.56c-0.4-0.38-0.95-0.57-1.65-0.57c-0.56,0-0.99,0.11-1.29,0.34
		s-0.61,0.75-0.91,1.56c-0.08,0.19-0.18,0.46-0.3,0.81c-0.35,0.97-0.62,1.55-0.79,1.76c-0.3,0.33-0.65,0.58-1.05,0.74
		c-0.41,0.16-0.88,0.24-1.42,0.24c-1.04,0-1.86-0.29-2.44-0.86c-0.59-0.57-0.88-1.38-0.88-2.4c0-0.97,0.27-1.74,0.81-2.29
		c0.54-0.55,1.3-0.83,2.25-0.83c0.03,0,0.08,0,0.15,0.01c0.07,0,0.12,0.01,0.15,0.01v1.23h-0.13c-0.67,0-1.19,0.16-1.56,0.49
		c-0.36,0.33-0.55,0.79-0.55,1.4c0,0.62,0.18,1.11,0.52,1.47c0.35,0.36,0.82,0.53,1.42,0.53c0.57,0,1-0.12,1.31-0.36
		s0.62-0.77,0.92-1.59c0.03-0.1,0.09-0.24,0.16-0.43c0.46-1.25,0.81-1.99,1.03-2.24c0.28-0.29,0.61-0.52,1-0.66s0.86-0.22,1.41-0.22
		c1.14,0,2.02,0.31,2.65,0.94s0.95,1.5,0.95,2.62s-0.31,1.96-0.93,2.53c-0.62,0.57-1.53,0.85-2.74,0.85c-0.04,0-0.11,0-0.2-0.01
		C855.8,210.67,855.73,210.67,855.69,210.67 M859.49,236.41h-11.97v-1.79l10.26-4.15l-10.26,0.13v-1.29h11.97v1.71l-10.57,4.21
		l10.57-0.11V236.41z M859.49,256.68h-11.97v-1.37h11.97V256.68z"/>
	<path class="st2" d="M1010.2,71.45h-19.79v6.67h-7.08V57.48h7.08v6.53h19.79V71.45z M1010.2,101.6h-26.87v-9
		c0-2.29,0.12-3.99,0.36-5.1c0.24-1.12,0.63-2.09,1.18-2.92c1.1-1.61,2.64-2.81,4.62-3.62c1.99-0.81,4.42-1.21,7.32-1.21
		c3.04,0,5.6,0.5,7.67,1.51c2.07,1,3.61,2.48,4.62,4.43c0.4,0.76,0.69,1.7,0.86,2.84s0.25,2.96,0.25,5.47L1010.2,101.6L1010.2,101.6
		z M1003.39,94.16v-2c0-1.85-0.48-3.14-1.44-3.86s-2.68-1.08-5.16-1.08c-2.43,0-4.14,0.37-5.14,1.1c-1.01,0.74-1.52,1.98-1.52,3.74
		v2.09h13.26V94.16z M1010.2,122.2h-26.87v-7.44h19.74v-10.12h7.14v17.56H1010.2z M996.79,149.67c-4.38,0-7.83-1.08-10.36-3.23
		c-2.53-2.15-3.79-5.1-3.79-8.82c0-3.71,1.26-6.65,3.79-8.79c2.53-2.15,5.99-3.23,10.36-3.23s7.82,1.07,10.36,3.23
		c2.53,2.15,3.81,5.08,3.81,8.79c0,3.72-1.27,6.66-3.81,8.82S1001.15,149.67,996.79,149.67 M996.79,142.17
		c2.55,0,4.41-0.37,5.61-1.1c1.19-0.74,1.78-1.89,1.78-3.45c0-1.55-0.59-2.69-1.78-3.42c-1.18-0.72-3.05-1.08-5.61-1.08
		c-2.57,0-4.44,0.36-5.63,1.08s-1.78,1.86-1.78,3.42s0.6,2.71,1.79,3.45C992.36,141.8,994.23,142.17,996.79,142.17 M1010.2,173.1
		h-26.87v-9.51c0-2.05,0.06-3.53,0.18-4.47c0.12-0.93,0.32-1.73,0.6-2.41c0.51-1.18,1.31-2.07,2.39-2.7
		c1.08-0.62,2.4-0.93,3.94-0.93c1.21,0,2.28,0.23,3.18,0.7c0.91,0.47,1.65,1.17,2.24,2.1c0.51-1.23,1.28-2.14,2.3-2.72
		c1.02-0.58,2.35-0.88,3.97-0.88c1.6,0,2.98,0.29,4.16,0.86c1.17,0.57,2.07,1.4,2.71,2.49c0.44,0.74,0.75,1.57,0.92,2.52
		c0.19,0.94,0.28,2.5,0.28,4.68L1010.2,173.1L1010.2,173.1z M994.06,165.88v-3.07c0-1.03-0.18-1.76-0.53-2.18
		c-0.36-0.42-0.95-0.63-1.79-0.63c-0.89,0-1.5,0.23-1.82,0.68c-0.33,0.45-0.49,1.49-0.49,3.13v2.06h4.63V165.88z M1003.92,165.88
		v-3.45c0-1.14-0.19-1.96-0.58-2.43c-0.38-0.48-1.03-0.72-1.91-0.72c-0.88,0-1.52,0.25-1.89,0.74c-0.38,0.49-0.57,1.32-0.57,2.48
		v3.38L1003.92,165.88L1003.92,165.88z M1010.2,196.88v6.73h-26.87v-9.06l13.41-3.21c0.18-0.04,0.6-0.13,1.25-0.25
		s1.54-0.31,2.69-0.54c-0.9-0.14-1.69-0.28-2.36-0.41s-1.18-0.24-1.52-0.33l-13.47-3.29v-9.05h26.87v6.73l-13.23-0.06
		c-0.8,0-1.58,0-2.34,0s-1.55-0.02-2.37-0.03c1.39,0.25,2.9,0.56,4.55,0.91l0.24,0.05l13.15,2.86v5.2l-12.86,2.9
		c-0.58,0.13-1.25,0.27-2,0.41c-0.76,0.13-1.78,0.32-3.07,0.54c1.16-0.03,2.15-0.06,2.98-0.07c0.83-0.02,1.49-0.02,1.99-0.02
		L1010.2,196.88L1010.2,196.88z M983.33,229.94v-7.44h16.57c1.53,0,2.62-0.27,3.27-0.83c0.65-0.55,0.98-1.47,0.98-2.76
		c0-1.26-0.32-2.16-0.96-2.7c-0.63-0.54-1.74-0.81-3.29-0.81h-16.57v-7.45h17.24c3.37,0,5.94,0.94,7.72,2.81
		c1.77,1.87,2.67,4.59,2.67,8.14c0,3.58-0.89,6.31-2.67,8.2c-1.78,1.89-4.35,2.83-7.71,2.83L983.33,229.94L983.33,229.94z
		 M1010.2,256.08h-26.87v-7.44h9.12v-6.94h-9.12v-7.44h26.87v7.44h-10.41v6.94h10.41V256.08z"/>
	<path class="st2" d="M1029.44,68.91l-11.97-3.26v-1.7l11.97-3.31v1.35l-3.45,0.91v3.79l3.45,0.87V68.91z M1024.77,66.38V63.2
		l-6.27,1.59L1024.77,66.38z M1029.44,89.84h-11.97v-1.37h11.97V89.84z M1029.44,116.7h-11.97v-3.12c0-1.12,0.24-1.93,0.71-2.43
		c0.47-0.51,1.23-0.76,2.28-0.76c0.71,0,1.29,0.14,1.72,0.41c0.43,0.27,0.73,0.69,0.89,1.25c0.14-0.7,0.45-1.21,0.93-1.54
		s1.15-0.5,2-0.5c1.09,0,1.94,0.3,2.53,0.9c0.6,0.6,0.9,1.45,0.9,2.55L1029.44,116.7L1029.44,116.7z M1028.26,115.41v-1.7
		c0-0.81-0.17-1.4-0.51-1.76s-0.9-0.54-1.68-0.54c-0.88,0-1.49,0.19-1.86,0.57c-0.36,0.38-0.54,1.03-0.54,1.96v1.47H1028.26z
		 M1022.56,115.41v-1.4c0-0.84-0.16-1.43-0.47-1.77s-0.84-0.51-1.6-0.51c-0.72,0-1.22,0.17-1.52,0.52
		c-0.29,0.35-0.44,0.95-0.44,1.84v1.32C1018.53,115.41,1022.56,115.41,1022.56,115.41z M1029.44,138.4h-11.29l11.29,2.91v1.3
		l-11.29,2.79h11.29v1.31h-11.97v-2.25l10.2-2.52l-10.2-2.63v-2.22h11.97V138.4z M1023.45,174.51c-2.23,0-3.83-0.3-4.8-0.91
		c-0.98-0.6-1.47-1.58-1.47-2.93c0-1.36,0.48-2.34,1.45-2.94c0.97-0.6,2.57-0.9,4.82-0.9s3.85,0.3,4.82,0.9
		c0.97,0.59,1.45,1.58,1.45,2.94c0,1.35-0.49,2.32-1.48,2.93C1027.26,174.21,1025.66,174.51,1023.45,174.51 M1023.45,173.12
		c1.92,0,3.25-0.18,3.99-0.55c0.73-0.37,1.1-1,1.1-1.9c0-0.91-0.36-1.55-1.08-1.91c-0.71-0.36-2.05-0.54-4.01-0.54
		c-1.95,0-3.29,0.18-4,0.54s-1.07,1-1.07,1.91c0,0.9,0.36,1.53,1.1,1.9C1020.21,172.94,1021.53,173.12,1023.45,173.12
		 M1029.44,199.23h-11.97v-1.34h10.68v-4.78h1.29L1029.44,199.23L1029.44,199.23z M1023.45,227.04c-2.23,0-3.83-0.3-4.8-0.91
		c-0.98-0.6-1.47-1.58-1.47-2.93c0-1.36,0.48-2.34,1.45-2.94c0.97-0.6,2.57-0.9,4.82-0.9s3.85,0.3,4.82,0.89s1.45,1.57,1.45,2.94
		c0,1.34-0.49,2.32-1.48,2.93C1027.26,226.74,1025.66,227.04,1023.45,227.04 M1023.45,225.65c1.92,0,3.25-0.18,3.99-0.55
		c0.73-0.37,1.1-1,1.1-1.9c0-0.91-0.36-1.55-1.08-1.91c-0.71-0.36-2.05-0.54-4.01-0.54c-1.95,0-3.29,0.18-4,0.54s-1.07,1-1.07,1.91
		c0,0.9,0.36,1.53,1.1,1.9C1020.21,225.47,1021.53,225.65,1023.45,225.65 M1025.04,248.38v-1.32c1.52,0.01,2.68,0.33,3.48,0.94
		c0.8,0.61,1.2,1.5,1.2,2.66c0,1.23-0.51,2.15-1.53,2.74c-1.01,0.59-2.59,0.89-4.71,0.89c-2.22,0-3.82-0.29-4.82-0.88
		c-0.99-0.59-1.49-1.53-1.49-2.85c0-1.09,0.32-1.94,0.95-2.53s1.54-0.89,2.71-0.89h0.15v1.29c-0.82,0-1.46,0.19-1.93,0.57
		s-0.7,0.91-0.7,1.57c0,0.81,0.4,1.4,1.19,1.76s2.1,0.53,3.94,0.53c1.79,0,3.07-0.18,3.83-0.55c0.76-0.37,1.14-0.97,1.14-1.82
		c0-0.68-0.28-1.2-0.84-1.57c-0.56-0.37-1.35-0.55-2.39-0.55h-0.18V248.38z"/>
	<path class="st2" d="M974.37,237.75l-0.05-15.62l-13.81,4.19c0.23,5.43,0.46,10.85,0.68,16.27l13.03-4.82
		C974.27,237.76,974.32,237.76,974.37,237.75"/>
	<polygon class="st2" points="948.99,57.57 952.89,86.25 959.42,57.57 	"/>
	<path class="st2" d="M961.27,244.34c0.15,3.76,0.3,7.83,0.45,11.59h12.71l-0.05-16.43L961.27,244.34z"/>
	<path class="st2" d="M928.06,135.71c0.06,0.99,0.12,1.99,0.19,2.98l19.74-12.94c0.39-0.25,0.9-0.14,1.15,0.24s0.14,0.9-0.24,1.15
		l-20.53,13.46c0.11,1.75,0.22,3.49,0.33,5.24c13.54-3.29,20.22-8.92,25.47-15.04c-0.73-10.68-1.56-21.28-2.51-31.79
		C950,113.41,943.95,126.27,928.06,135.71"/>
	<path class="st2" d="M922.08,162.82c-0.52-3.68-1.4-5.91,0.4-9.88c-2.8-0.89-5.44-1.99-7.94-3.28l-11.64,7.63
		C909.04,161.1,915.46,163.16,922.08,162.82"/>
	<path class="st2" d="M931.97,107.73c4.03-1.75,7.59-4.73,10.86-8.5l-10.34,5.63C932.33,105.81,932.16,106.76,931.97,107.73"/>
	<path class="st2" d="M920.58,127.36c0.39-2.36,0.77-4.72,1.16-7.07c-2.31-2.04-4.31-4.14-6.03-6.28l-13.46,7.34
		C907.6,125.23,913.54,127.64,920.58,127.36"/>
	<path class="st2" d="M941.91,201.26l10.9-7.19c0.38-0.25,0.9-0.14,1.15,0.24s0.15,0.9-0.24,1.15l-22.58,14.89
		c0.06,3.06,0.12,6.12,0.18,9.18c10.1-2.12,18.74-6.76,26.56-12.82c-0.23-6.78-0.48-13.56-0.75-20.31
		C952.7,191.83,947.62,196.78,941.91,201.26"/>
	<path class="st2" d="M944.83,160.2c-5.13,3.62-10.26,7.25-15.4,10.87c0.37,1.63,0.67,3.26,0.85,4.89l18.7-13.25
		c0.38-0.26,0.9-0.18,1.17,0.2c0.26,0.38,0.18,0.89-0.2,1.16l-19.49,13.82c0.09,1.5,0.08,2.99-0.08,4.49
		c9.94-1.42,18.61-4.84,26.14-10.05c-0.13-2.86-0.26-5.73-0.41-8.58c-0.12-0.1-0.22-0.23-0.27-0.39c-0.1-0.31,0-0.62,0.21-0.84
		c-0.25-4.86-0.51-9.71-0.79-14.54c-0.05-0.07-0.09-0.14-0.11-0.22c-0.03-0.09-0.03-0.17-0.02-0.25
		C952.45,151.97,949.06,156.22,944.83,160.2"/>
	<path class="st2" d="M922.69,199.58c0.35-3.34,0.7-6.69,1.05-10.03c-2.39-0.59-4.62-1.31-6.71-2.15l-11.56,8.2
		C910.92,198.61,916.64,200.09,922.69,199.58"/>
	<path class="st2" d="M895.38,151.68c1.96,1.72,3.96,3.26,5.99,4.62l11.51-7.54c-7.39-4.21-13.35-10.27-17.82-18.09L895.38,151.68z"
		/>
	<path class="st2" d="M923.84,81.87l-6.8,1.82c1.27,1.66,2.54,3.32,3.81,4.98C921.99,86.61,922.98,84.33,923.84,81.87"/>
	<path class="st2" d="M896.88,250.21l0.1,6.8h6.7C901.35,254.95,899.08,252.45,896.88,250.21"/>
	<path class="st2" d="M900.82,120.28c0.05-0.05,0.1-0.1,0.17-0.14l13.68-7.46c-2.97-4-4.99-8.16-6.21-12.46l-7.68,4.29
		c-0.13,0.07-0.27,0.11-0.41,0.11c-0.29,0-0.58-0.15-0.73-0.43c-0.23-0.4-0.08-0.91,0.32-1.14l8.06-4.5
		c-0.77-3.29-1.09-6.65-1.03-10.08l-6.01,3.59c-0.13,0.08-0.28,0.12-0.43,0.12c-0.29,0-0.56-0.14-0.72-0.41
		c-0.24-0.39-0.11-0.91,0.29-1.14l6.94-4.14c0.26-4.45,1.15-9,2.5-13.63l-9.76,6.28c-0.14,0.09-0.3,0.14-0.45,0.14
		c-0.27,0-0.54-0.14-0.7-0.38c-0.25-0.39-0.14-0.9,0.25-1.15l11.42-7.34c0.4-1.24,0.84-2.49,1.3-3.74c0.27,0.79,0.54,1.59,0.82,2.38
		l6.33-4.07c-0.04-2.18-0.1-4.44-0.19-6.76c1.46,1.33,2.85,2.73,4.15,4.2l7.11-4.85h-21.7c0.02,0.28-0.08,0.58-0.32,0.76l-7.61,5.57
		c-0.15,0.11-0.32,0.16-0.49,0.16c-0.26,0-0.51-0.12-0.67-0.34c-0.27-0.37-0.19-0.89,0.18-1.16l6.81-4.99h-12.1l0.88,57.22
		C896.75,116.79,898.74,118.64,900.82,120.28"/>
	<path class="st2" d="M938.33,242.77l16.16-10.55c0.39-0.25,0.9-0.14,1.15,0.24s0.14,0.9-0.24,1.15l-23.12,15.09
		c-0.35,0.34-0.7,0.68-1.05,1.02c0.06,2.02,0.13,4.19,0.19,6.21h27.88c-0.29-11.6-0.59-23.2-0.93-34.75
		C951.83,229.03,945.11,236.03,938.33,242.77"/>
	<path class="st2" d="M929.67,73.01l13.25-7.91c0.4-0.24,0.91-0.11,1.14,0.29c0.24,0.4,0.11,0.91-0.29,1.14l-13.44,8.02
		c1.23,3.04,2.15,6.37,2.69,10.03l11.12-6.22c0.41-0.23,0.91-0.08,1.13,0.32c0.23,0.4,0.08,0.91-0.32,1.13l-11.71,6.54
		c0.54,4.86,0.44,10.29-0.44,16.42l11.25-6.13c0.27-0.15,0.58-0.12,0.83,0.03c2-2.62,3.9-5.51,5.73-8.58
		c-1.01-10.12-2.14-20.62-3.43-30.54H931.9c0.06,0.33-0.07,0.97-0.36,1.16l-7.72,4.97C926.11,66.49,928.1,69.57,929.67,73.01"/>
	<path class="st2" d="M922.48,227.56c-3.54-0.73-6.99-2.31-10.35-4.66l-5.83,3.85c-0.14,0.09-0.3,0.14-0.46,0.14
		c-0.27,0-0.54-0.13-0.7-0.37c-0.25-0.38-0.15-0.9,0.24-1.16l5.31-3.5c-5.02-3.86-9.84-9.43-14.5-16.48l0.38,24.67
		c8.46,6.63,17.21,10.96,26.43,11.35C922.83,236.78,922.65,232.17,922.48,227.56"/>
	<path class="st2" d="M917.08,80.87l2.18-1.11c0.44-3.54,0.57-7.94,0.51-12.83l-6.79,3.73C914.35,74.07,915.72,77.47,917.08,80.87"
		/>
	<path class="st2" d="M903.92,194.69c0.04-0.05,0.08-0.1,0.14-0.14l11.18-7.92c-8.87-4.04-14.97-10.37-19.6-17.92l0.3,19.89
		C898.54,190.98,901.2,193.03,903.92,194.69"/>
	<path class="st2" d="M926.2,102.12c-0.33,0-0.65-0.2-0.77-0.53c-2.04-5.19-4.58-8.75-7.04-12.19c-3-4.19-5.83-8.15-6.94-14.27
		c-0.08-0.45,0.22-0.89,0.67-0.97c0.46-0.08,0.89,0.22,0.97,0.67c1.05,5.75,3.65,9.39,6.66,13.6c2.4,3.36,5.13,7.17,7.24,12.56
		c0.17,0.43-0.05,0.91-0.47,1.08C926.4,102.1,926.3,102.12,926.2,102.12 M927.09,116.28c-0.18,0-0.35-0.05-0.5-0.17
		c-0.37-0.28-0.44-0.8-0.16-1.17c2.62-3.44,5.52-5.15,8.58-6.95c4.79-2.81,9.75-5.72,14.13-16.04c0.18-0.42,0.67-0.62,1.09-0.44
		c0.43,0.18,0.62,0.67,0.44,1.09c-4.6,10.82-10.03,14.01-14.82,16.82c-2.92,1.72-5.68,3.34-8.1,6.52
		C927.59,116.17,927.35,116.28,927.09,116.28 M923.61,135.85c-0.24,0-0.49-0.11-0.65-0.32c-1.67-2.11-4.53-3.21-8.15-4.59
		c-6.2-2.36-14.68-5.6-23.65-16.3c-0.29-0.35-0.25-0.88,0.1-1.18s0.88-0.25,1.18,0.1c8.69,10.37,16.94,13.51,22.96,15.81
		c3.87,1.48,6.92,2.64,8.87,5.12c0.29,0.36,0.22,0.88-0.14,1.17C923.97,135.79,923.79,135.85,923.61,135.85 M924.17,156.99
		c-0.08,0-0.16-0.01-0.24-0.04c-0.44-0.13-0.69-0.6-0.55-1.04c2.07-6.78,6.82-8.4,11.42-9.97c2.13-0.72,4.14-1.41,5.88-2.6
		c0.08-0.05,0.16-0.09,0.24-0.11c9.85-2.75,12.92-6.99,17.59-16.02c0.21-0.41,0.71-0.57,1.12-0.36s0.57,0.72,0.36,1.12
		c-4.77,9.22-8.15,13.9-18.49,16.82c-1.9,1.27-4.07,2-6.17,2.72c-4.39,1.5-8.54,2.91-10.36,8.87
		C924.86,156.75,924.53,156.99,924.17,156.99 M925.74,174.41c-0.33,0-0.65-0.2-0.78-0.54c-2.8-7.43-9.97-8.21-15.21-8.78
		c-0.61-0.06-1.17-0.13-1.7-0.2c-7.54-1.35-12.44-6.76-19.05-14.84c-0.29-0.36-0.24-0.88,0.12-1.17s0.88-0.24,1.17,0.12
		c6.38,7.8,11.08,13.01,18.02,14.26c0.47,0.06,1.03,0.12,1.62,0.19c5.35,0.58,13.43,1.46,16.59,9.85c0.16,0.43-0.05,0.91-0.48,1.07
		C925.94,174.39,925.84,174.41,925.74,174.41 M926.2,194.76c-0.06,0-0.13-0.01-0.2-0.02c-0.45-0.11-0.72-0.56-0.61-1
		c1.53-6.32,5.9-10.13,13.35-11.64c16.26-3.92,19.97-8.13,23.89-12.59c0.39-0.44,0.78-0.88,1.18-1.32c0.31-0.34,0.84-0.36,1.18-0.06
		c0.34,0.31,0.37,0.84,0.06,1.18c-0.39,0.43-0.77,0.87-1.16,1.3c-3.92,4.46-7.98,9.07-24.78,13.11c-6.78,1.38-10.73,4.78-12.09,10.4
		C926.91,194.51,926.57,194.76,926.2,194.76 M927.55,208.03c-0.27,0-0.53-0.13-0.69-0.37c-2.38-3.56-5.47-6.73-11.88-5.86
		c-0.08,0.01-0.17,0.01-0.25,0.01c-13.72,0-21.88-10.79-28.46-20.91c-0.25-0.38-0.14-0.9,0.24-1.15s0.9-0.14,1.15,0.24
		c8.11,12.47,15.48,20.2,27.15,20.15c7.3-0.96,10.89,2.79,13.43,6.6c0.26,0.38,0.15,0.9-0.23,1.15
		C927.87,207.98,927.7,208.03,927.55,208.03 M923.84,236.47c-0.07,0-0.14-0.01-0.21-0.03c-0.44-0.12-0.71-0.57-0.59-1.02
		c0.12-0.47,0.24-0.95,0.35-1.43c1.21-5.03,2.47-10.23,14.94-13.89c0.03-0.01,0.06-0.02,0.09-0.02
		c11.3-1.98,19.53-10.34,27.49-18.42c1.96-1.99,3.98-4.05,6.03-5.98c0.33-0.32,0.86-0.3,1.18,0.03c0.31,0.33,0.3,0.86-0.04,1.18
		c-2.03,1.92-4.04,3.96-5.99,5.94c-8.14,8.26-16.55,16.8-28.35,18.89c-11.51,3.39-12.6,7.9-13.75,12.67
		c-0.11,0.49-0.23,0.97-0.36,1.46C924.54,236.23,924.21,236.47,923.84,236.47 M930.54,255.93c-0.32,0-0.63,0.32-0.77,0
		c-0.4-0.95-0.72-1.76-1.02-2.71c-1.49-4.7-2.77-8.76-13.8-8.17c-0.07,0-0.13,0-0.19-0.01c-16.88-3.12-32.89-22.6-48.37-41.43
		l-1.77-2.15c-0.29-0.36-0.24-0.88,0.12-1.17c0.35-0.29,0.88-0.24,1.17,0.11l1.77,2.15c15.26,18.57,31.04,37.76,47.29,40.83
		c12.22-0.62,13.9,4.67,15.38,9.34c0.31,0.96,0.59,2.34,0.97,3.22c0.18,0.43-0.02-0.18-0.44,0
		C930.76,255.98,930.65,255.93,930.54,255.93"/>
	<path class="st2" d="M879.62,172.92c-1.41-3.38-2.8-6.87-4.17-10.49c5.69,9.13,11.55,17.21,17.72,23.5l-0.45-22.48
		c-3.54-7.05-6.19-14.83-8.84-22.61c-0.1,0.05-0.21,0.08-0.33,0.08c-0.11,0-0.23-0.02-0.34-0.07l-17.71-8.01v14.52
		c0.11,0,0.23,0.03,0.33,0.08l22.01,11.1c0.41,0.21,0.58,0.71,0.37,1.12c-0.15,0.29-0.44,0.46-0.75,0.46
		c-0.13,0-0.25-0.03-0.37-0.09l-21.59-10.89v16.51c0.15-0.01,0.3,0.01,0.44,0.08L879.62,172.92z"/>
	<path class="st2" d="M887.77,111.01c-0.39-1.78-0.74-3.61-1.03-5.49c1.63,2.01,3.28,3.99,4.96,5.89l-1.08-53.84H867l20.78,11.3
		c0.4,0.22,0.55,0.73,0.33,1.13c-0.15,0.27-0.44,0.43-0.73,0.43c-0.14,0-0.27-0.03-0.4-0.1L865.5,58.49v15.12
		c0.18-0.03,0.37-0.02,0.54,0.08l22.1,12.19c0.4,0.22,0.55,0.73,0.33,1.13c-0.15,0.28-0.44,0.43-0.73,0.43
		c-0.14,0-0.27-0.03-0.4-0.1L865.5,75.29v13.69c0.07,0.01,0.15,0.02,0.22,0.05l22.65,10.55c0.42,0.19,0.6,0.69,0.4,1.11
		c-0.14,0.3-0.44,0.48-0.76,0.48c-0.12,0-0.24-0.03-0.35-0.08L865.5,90.77v11.2c0.12-0.01,0.25,0,0.37,0.05L887.77,111.01z"/>
	<path class="st2" d="M883.27,139.04c-0.08-0.23-0.15-0.46-0.23-0.68c0.23,0.3,0.47,0.6,0.71,0.9l0.15,0.07
		c0.29,0.14,0.47,0.42,0.48,0.72c2.61,3.24,5.29,6.24,8.06,8.93l-0.49-24.58c-1.5-3.52-2.74-7.34-3.73-11.43
		c-0.05-0.01-0.1-0.01-0.16-0.03l-22.56-9.26v12.81l20.82,8.18c0.43,0.17,0.64,0.65,0.47,1.08c-0.13,0.33-0.44,0.53-0.77,0.53
		c-0.1,0-0.2-0.02-0.31-0.06l-20.21-7.94v12.79c0.1,0,0.2,0.02,0.3,0.07L883.27,139.04z"/>
	<path class="st2" d="M875.96,223.1l-10.47-5.27v17.31c0.06,0.02,0.13,0.02,0.19,0.06l22.1,12.37c0.4,0.23,0.55,0.73,0.32,1.14
		c-0.15,0.27-0.43,0.43-0.73,0.43c-0.14,0-0.28-0.03-0.4-0.11l-21.47-12.01v16.8l5.15,2.13h23.9l-0.15-8.41
		C887.71,240.1,881.71,231.77,875.96,223.1"/>
	<path class="st2" d="M874.14,220.31c-2.92-4.48-5.78-9.02-8.64-13.58v9.28c0.08,0.01,0.17,0.03,0.24,0.07L874.14,220.31z"/>
	<path class="st2" d="M884.92,197.38c-0.13,0-0.27-0.03-0.39-0.1l-19.02-10.22v10.14c2.25,2.75,4.51,5.49,6.77,8.17l15.06,8.55
		c0.4,0.23,0.54,0.74,0.31,1.14c-0.15,0.27-0.44,0.42-0.72,0.42c-0.14,0-0.28-0.04-0.41-0.11l-11.06-6.28
		c6.1,7.04,12.25,13.55,18.55,18.86l-0.53-26.91c-4.42-7.33-8.68-15.97-12.83-25.71l-15.14-7.97v17.85
		c0.06,0.02,0.12,0.02,0.17,0.05l19.64,10.55c0.41,0.22,0.56,0.72,0.34,1.13C885.5,197.23,885.21,197.38,884.92,197.38"/>
	<path class="st2" d="M961.66,130.59c-1.03,5.05-2.74,9.89-5.18,14.49c0.03,0.46,0.06,0.91,0.08,1.37l17.2-5.14
		c0.11-0.03,0.22-0.04,0.32-0.03l-0.04-13.32l-12.36,2.63C961.68,130.59,961.67,130.59,961.66,130.59"/>
	<path class="st2" d="M962.86,120.08c-0.09,2.98-0.38,5.89-0.87,8.75l11.84-2.52c0.07-0.01,0.14,0,0.21,0L974,112.04l-17.79,3.73
		c-0.06,0.01-0.11,0.02-0.17,0.02c-0.38,0-0.73-0.27-0.81-0.66c-0.1-0.45,0.19-0.89,0.64-0.99l17.97-3.77c0.05-0.01,0.11,0,0.16,0
		L973.96,100l-15.21,4.45c-0.08,0.02-0.16,0.03-0.23,0.03c-0.37,0-0.7-0.24-0.8-0.6c-0.13-0.44,0.13-0.91,0.57-1.04l15.22-4.45
		c0.15-0.04,0.3-0.03,0.45,0.01l-0.04-11.39l-13.45,4.15c-0.08,0.03-0.16,0.04-0.25,0.04c-0.36,0-0.69-0.23-0.79-0.59
		c-0.14-0.44,0.11-0.91,0.55-1.04l13.86-4.28c0.02-0.01,0.05,0,0.08-0.01l-0.03-11.76l-9.13,2.91c-0.08,0.03-0.17,0.04-0.25,0.04
		c-0.35,0-0.68-0.23-0.79-0.58c-0.14-0.44,0.1-0.91,0.54-1.05l9.62-3.07l-0.03-10.56l-5.16,2.17c-0.11,0.04-0.22,0.06-0.33,0.06
		c-0.32,0-0.63-0.19-0.77-0.51c-0.18-0.43,0.02-0.91,0.45-1.09l5.31-2.23c0.16-0.07,0.34-0.07,0.5-0.03v-2.03h-11.02l-9.42,38.44
		c0.76,11.05,1.47,22.1,2.13,33.16C957.99,126.15,960.22,123.04,962.86,120.08"/>
	<path class="st2" d="M977,161.3c1.1-0.11,2.22-0.14,3.32-0.12l-0.07-6.32c-2.13,2.3-4.45,4.54-6.73,6.8L977,161.3z"/>
	<path class="st2" d="M970.5,159.48l-12.99,4.21c0.14,2.63,0.28,5.25,0.42,7.88C962.56,168.22,966.74,164.18,970.5,159.48"/>
	<path class="st2" d="M974.18,173.15l-0.04-14.85l-1.24,0.4c-2.1,6.06-4.74,11.7-7.89,16.97l8.94-2.5
		C974.03,173.15,974.1,173.15,974.18,173.15"/>
	<path class="st2" d="M963.72,177.77c-1.58,2.49-3.28,4.9-5.1,7.22c0.18,3.6,0.36,7.21,0.53,10.81l14.75-5.22
		c0.11-0.04,0.22-0.05,0.33-0.04l-0.05-15.7L963.72,177.77z"/>
	<path class="st2" d="M957.43,161.96l14.68-4.76c-0.31,0.48-0.63,0.96-0.95,1.43c1.02-1.31,2.01-2.64,2.96-4.05l-0.03-11.64
		l-17.43,5.21C956.92,152.76,957.18,157.36,957.43,161.96"/>
	<path class="st2" d="M974.29,209.36c-0.01,0-0.02,0.01-0.04,0.02l-8.34,2.64c-1.87,2.53-3.78,4.96-5.69,7.32
		c0.08,1.75,0.15,3.51,0.23,5.26l13.66-4.14c0.07-0.02,0.14-0.02,0.22-0.02L974.29,209.36z"/>
	<path class="st2" d="M973.38,192.53l-14.15,5.01c0.13,2.71,0.25,5.41,0.37,8.11C964.46,201.73,969,197.27,973.38,192.53"/>
	<path class="st2" d="M974.27,192.24V200c-2.19,3.41-4.43,6.63-6.7,9.74l6.26-1.95c0.19-0.06,0.37-0.04,0.54,0.02l-0.05-15.58
		L974.27,192.24z"/>
</g>
</svg>
